<?xml version="1.0" encoding="UTF-8"?>
<svg id="Layer_2" xmlns="http://www.w3.org/2000/svg" viewBox="0 0 267.01 77.68">
  <defs>
    <style>
      .cls-1 {
        fill: #c89211;
      }

      .cls-2 {
        fill: #fff;
      }
    </style>
  </defs>
  <g id="Layer_1-2" data-name="Layer_1">
    <g>
      <path class="cls-2" d="M31.92,25.64c0,7.89-1.15,13.88-13.14,13.88s-13.77-5.76-13.77-13.88V6.45C5.01,2.13,3.17,1.72,0,1.72V.58h15.15v1.15c-3.11,0-5.01.4-5.01,4.73v19.18c0,5.88,1.38,11.63,8.87,11.63,8.31,0,9.62-4.78,9.62-11.63V6.45c0-4.32-1.9-4.73-5.01-4.73V.58h13.31v1.15c-3.17,0-5.01.4-5.01,4.73v19.18Z"/>
      <path class="cls-2" d="M63.78,37.97c-2.82,1.04-6.05,1.56-10.31,1.56-11.52,0-17.05-8.76-17.05-21.03,0-10.67,3.45-18.5,15.78-18.5,4.61,0,8.53.92,11.07,1.61l.52,9.05h-1.44c-.75-3.23-3.05-8.41-10.2-8.41-9.27,0-10.02,9.85-10.02,15.79,0,7.43,1.62,18.9,14.23,18.9,3.86,0,5.93-.86,7.43-1.44v2.48h0Z"/>
      <path class="cls-2" d="M94.73,8.87c-.52-3.05-2.83-6.63-8.99-6.63-3.86,0-7.26,2.48-7.26,6.28,0,5.13,6.86,6.8,11.87,9.74,4.55,2.65,7.6,5.01,7.6,10.49,0,7.31-6.34,10.77-14.23,10.77-3.92,0-8.46-.86-9.91-1.1l-.41-8.12h1.44c.46,3.05,3.17,6.63,9.33,6.63,5.07,0,8.35-3.28,8.35-7.26,0-6.22-9.56-8.12-14.92-12.21-2.53-1.96-3.74-4.03-3.74-7.72,0-6.92,5.72-9.74,12.97-9.74,3.87,0,6.34.46,8.94.98l.4,7.89h-1.44Z"/>
      <path class="cls-2" d="M121.5,39c-.61.15-1.9.46-3.74.46-2.97,0-3.85-1.53-3.85-3.74h-.11c-1.58,2.31-3.79,3.74-7.28,3.74s-6.15-2.46-6.15-5.79c0-7.43,9.64-7.43,13.53-7.79v-1.94c0-3.59-.05-7.38-4.36-7.38-3.18,0-3.59,1.33-3.59,2.97,0,2.1-1.53,2.67-2.41,2.67-1.39,0-2.46-.92-2.46-2.31,0-3.33,4.97-5.02,8.51-5.02,7.02,0,8.3,3.38,8.3,8.15v12.71c0,1.79.61,2.41,2.21,2.41.46,0,.92-.1,1.38-.2v1.07h.02ZM113.91,27.57c-2.41.05-8.97.52-8.97,5.28,0,2.66,1.75,4.46,3.49,4.46,3.33,0,5.48-3.23,5.48-6.71,0,0,0-3.03,0-3.03Z"/>
      <path class="cls-2" d="M122.63,38.08c2.15,0,3.89-.46,3.89-3.79v-13.99c0-3.08-2.41-3.23-3.89-3.33v-.87l7.89-1.23v6.76h.11c.71-1.9,3.02-6.76,8.09-6.76,5.44,0,5.95,2.97,5.95,7.74v11.69c0,3.33,1.74,3.79,3.89,3.79v.87h-11.79v-.87c2.15,0,3.9-.46,3.9-3.79v-10.56c0-4.41-.05-6.41-3.44-6.41-3.02,0-6.71,5.79-6.71,10.66v6.31c0,3.33,1.74,3.79,3.9,3.79v.87h-11.79v-.87h0Z"/>
      <path class="cls-2" d="M154.43,37.79c3.11,0,5.02-.4,5.02-4.72V6.45c0-4.32-1.9-4.73-5.02-4.73V.58h13.49c9.56,0,19.7,2.07,19.7,19.24s-10.66,19.13-19.7,19.13h-13.49s0-1.16,0-1.16ZM164.57,31.86c0,4.2.46,4.84,3.35,4.84,9.91,0,14-5.3,14-16.88,0-10.6-3.05-17-14-17-2.88,0-3.35.35-3.35,4.84v24.2Z"/>
      <path class="cls-2" d="M189.71,38.08c2.16,0,3.9-.46,3.9-3.79v-13.99c0-3.08-2.36-3.23-3.9-3.33v-.87l7.9-1.23v19.42c0,3.33,1.74,3.79,3.89,3.79v.87h-11.79v-.87ZM192.54,7.22c0-1.64,1.28-2.92,2.92-2.92s2.92,1.28,2.92,2.92-1.28,2.92-2.92,2.92-2.92-1.28-2.92-2.92Z"/>
      <path class="cls-2" d="M220.05,38.53c-1.23.46-2.97.92-6.1.92-7.94,0-12.4-4.36-12.4-12.97,0-7.48,3.02-11.63,10.4-11.63,4.61,0,8.77,2.56,8.77,8.5v1.13h-14.92c0,4.3,2.1,13.07,10.66,13.07,1.17,0,2.56-.15,3.59-.67v1.64h0ZM216.15,22.8c0-2.71-.93-6.25-4.87-6.25s-5.49,4.36-5.49,6.25h10.36Z"/>
      <path class="cls-2" d="M237.38,34.85c2.45,0,8.15.1,8.15,5.79s-5.74,9.12-12.56,9.12c-5.02,0-10.25-1.9-10.25-6.51,0-3.18,2.36-4.56,4-5.38-.88-.51-2.21-1.48-2.21-3.64,0-1.9,1.64-3.84,2.21-4.46-1.18-.97-2.97-2.51-2.97-6.87,0-6.61,4.81-8.04,9.68-8.04,2.36,0,3.64.41,5.29,1.28.82-1.94,2.04-5.48,5.17-5.48,1.44,0,2.46.92,2.46,2.46,0,1.39-.87,2.31-2.41,2.31-1.33,0-1.64-.72-2.31-.72-1.12,0-1.58,1.49-1.84,2.31.61.67,2.3,2.56,2.3,6.15,0,5.17-3.22,8.1-9.37,8.1-2.05,0-3.54-.26-4.66-.77-.31.41-.92,1.18-.92,2.3,0,2.05,2.56,2.05,4.2,2.05h6.05,0ZM228.51,38.49c-1.03.77-2.46,1.64-2.46,3.95,0,3.02,2.71,5.64,7.17,5.64s8.97-2.41,8.97-6.1c0-2.62-2.15-3.49-4.72-3.49h-8.97,0ZM232.97,29.57c4.31,0,4.87-3.38,4.87-6.1,0-3.84-1.33-6.92-5.03-6.92-4.05,0-4.81,2.97-4.81,5.95,0,3.89,1.28,7.07,4.97,7.07Z"/>
      <path class="cls-2" d="M245.58,27.16c0-7.69,4.15-12.3,10.71-12.3s10.72,4.61,10.72,12.3-4.15,12.3-10.72,12.3-10.71-4.61-10.71-12.3ZM256.29,37.77c5.13,0,6.16-6.35,6.16-10.61s-1.03-10.61-6.16-10.61-6.15,6.36-6.15,10.61,1.02,10.61,6.15,10.61Z"/>
      <g id="line">
        <path class="cls-1" d="M220.1,47.78H0v1.3h221.35c-.47-.4-.89-.84-1.24-1.3h-.01Z"/>
        <path class="cls-1" d="M266.59,47.78h-20.24c-.46.47-.97.9-1.53,1.3h21.77v-1.3Z"/>
      </g>
      <g>
        <path class="cls-2" d="M6.14,74.05c.89.45,2.25.91,3.65.91,1.51,0,2.31-.63,2.31-1.58s-.69-1.43-2.44-2.05c-2.42-.84-4-2.18-4-4.3,0-2.49,2.07-4.39,5.51-4.39,1.64,0,2.85.35,3.72.74l-.73,2.66c-.58-.28-1.62-.69-3.05-.69s-2.12.65-2.12,1.41c0,.93.82,1.34,2.7,2.05,2.57.95,3.78,2.29,3.78,4.34,0,2.44-1.88,4.52-5.88,4.52-1.66,0-3.31-.43-4.13-.89l.67-2.72h.01Z"/>
        <path class="cls-2" d="M28.62,77.03c-.61.3-1.97.63-3.74.63-5.03,0-7.63-3.13-7.63-7.28,0-4.97,3.54-7.74,7.95-7.74,1.71,0,3,.35,3.59.65l-.67,2.61c-.67-.28-1.6-.54-2.77-.54-2.61,0-4.65,1.58-4.65,4.82,0,2.92,1.73,4.75,4.67,4.75.99,0,2.1-.22,2.74-.48l.5,2.57h.01Z"/>
        <path class="cls-2" d="M34.3,62.88v5.6h5.42v-5.6h3.28v14.56h-3.28v-6.09h-5.42v6.09h-3.31v-14.56h3.31Z"/>
        <path class="cls-2" d="M59.44,70.01c0,4.78-2.9,7.67-7.15,7.67s-6.85-3.26-6.85-7.41c0-4.37,2.79-7.63,7.09-7.63s6.91,3.35,6.91,7.37ZM48.92,70.2c0,2.85,1.34,4.86,3.54,4.86s3.5-2.12,3.5-4.95c0-2.62-1.25-4.86-3.52-4.86s-3.52,2.12-3.52,4.95h0Z"/>
        <path class="cls-2" d="M75.15,70.01c0,4.78-2.9,7.67-7.15,7.67s-6.85-3.26-6.85-7.41c0-4.37,2.79-7.63,7.09-7.63s6.91,3.35,6.91,7.37ZM64.63,70.2c0,2.85,1.34,4.86,3.54,4.86s3.5-2.12,3.5-4.95c0-2.62-1.25-4.86-3.52-4.86s-3.52,2.12-3.52,4.95h0Z"/>
        <path class="cls-2" d="M77.53,62.88h3.31v11.8h5.79v2.77h-9.1v-14.56h0Z"/>
        <path class="cls-2" d="M106.71,70.01c0,4.78-2.9,7.67-7.15,7.67s-6.85-3.26-6.85-7.41c0-4.37,2.79-7.63,7.09-7.63s6.91,3.35,6.91,7.37ZM96.19,70.2c0,2.85,1.34,4.86,3.54,4.86s3.5-2.12,3.5-4.95c0-2.62-1.25-4.86-3.52-4.86s-3.52,2.12-3.52,4.95h0Z"/>
        <path class="cls-2" d="M109.09,62.88h8.9v2.7h-5.6v3.33h5.23v2.68h-5.23v5.86h-3.31v-14.56h0Z"/>
        <path class="cls-2" d="M137.59,71.87c-.06-1.75-.13-3.87-.13-5.99h-.06c-.45,1.86-1.06,3.93-1.62,5.64l-1.77,5.68h-2.57l-1.56-5.64c-.48-1.71-.97-3.78-1.32-5.68h-.04c-.09,1.97-.15,4.21-.26,6.03l-.26,5.53h-3.05l.93-14.56h4.39l1.43,4.86c.45,1.69.91,3.5,1.23,5.21h.06c.41-1.69.91-3.61,1.38-5.23l1.56-4.84h4.3l.8,14.56h-3.22l-.22-5.58h0Z"/>
        <path class="cls-2" d="M152.44,71.28h-5.36v3.46h5.99v2.7h-9.29v-14.56h8.99v2.7h-5.68v3.03h5.36v2.68h0Z"/>
        <path class="cls-2" d="M155.53,63.07c1.21-.19,2.79-.3,4.45-.3,2.77,0,4.56.5,5.96,1.56,1.51,1.12,2.46,2.92,2.46,5.49,0,2.79-1.02,4.71-2.42,5.9-1.53,1.27-3.87,1.88-6.72,1.88-1.71,0-2.92-.11-3.74-.22v-14.31h.01ZM158.84,74.96c.28.06.73.06,1.15.06,2.98.02,4.93-1.62,4.93-5.1.02-3.03-1.75-4.62-4.58-4.62-.73,0-1.21.07-1.49.13v9.53h-.01Z"/>
        <path class="cls-2" d="M174.1,62.88v14.56h-3.31v-14.56h3.31Z"/>
        <path class="cls-2" d="M187.86,77.03c-.61.3-1.97.63-3.74.63-5.03,0-7.63-3.13-7.63-7.28,0-4.97,3.54-7.74,7.95-7.74,1.71,0,3,.35,3.59.65l-.67,2.61c-.67-.28-1.6-.54-2.77-.54-2.61,0-4.65,1.58-4.65,4.82,0,2.92,1.73,4.75,4.67,4.75.99,0,2.1-.22,2.74-.48l.5,2.57h0Z"/>
        <path class="cls-2" d="M193.55,62.88v14.56h-3.31v-14.56h3.31Z"/>
        <path class="cls-2" d="M196.62,77.44v-14.56h3.85l3.03,5.34c.86,1.53,1.73,3.35,2.38,4.99h.06c-.22-1.92-.28-3.89-.28-6.07v-4.26h3.03v14.56h-3.46l-3.11-5.62c-.86-1.56-1.82-3.44-2.53-5.14l-.06.02c.09,1.92.13,3.98.13,6.35v4.39h-3.04Z"/>
        <path class="cls-2" d="M220.41,71.28h-5.36v3.46h5.99v2.7h-9.29v-14.56h8.99v2.7h-5.68v3.03h5.36v2.68h0Z"/>
      </g>
    </g>
  </g>
</svg>